<svg xmlns="http://www.w3.org/2000/svg" xmlns:xlink="http://www.w3.org/1999/xlink" width="500" zoomAndPan="magnify" viewBox="0 0 375 374.999991" height="500" preserveAspectRatio="xMidYMid meet" version="1.0"><defs><clipPath id="2f38f30b90"><path d="M 37.457031 9 L 341.207031 9 L 341.207031 363.84375 L 37.457031 363.84375 Z M 37.457031 9 " clip-rule="nonzero"/></clipPath><clipPath id="a10409ac91"><path d="M 178.820312 363.816406 L 45.46875 266.195312 C 40.433594 262.507812 37.457031 256.640625 37.457031 250.394531 L 37.457031 118.945312 L 178.820312 222.433594 Z M 199.851562 363.816406 L 333.203125 266.195312 C 338.238281 262.507812 341.214844 256.640625 341.214844 250.394531 L 341.214844 118.945312 L 199.851562 222.433594 Z M 178.300781 12.910156 L 47.488281 102.160156 L 188.855469 205.648438 L 189.335938 205.28125 L 189.816406 205.648438 L 331.183594 102.160156 L 200.371094 12.910156 C 193.714844 8.371094 184.957031 8.371094 178.300781 12.910156 Z M 178.300781 12.910156 " clip-rule="nonzero"/></clipPath><linearGradient x1="-46.33185" gradientTransform="matrix(0.708537, 0, 0, 0.708623, 37.455876, 9.50516)" y1="63.363501" x2="474.959228" gradientUnits="userSpaceOnUse" y2="435.136491" id="fb2e42bbd1"><stop stop-opacity="1" stop-color="rgb(56.811523%, 32.989502%, 99.240112%)" offset="0"/><stop stop-opacity="1" stop-color="rgb(56.999207%, 33.067322%, 99.165344%)" offset="0.015625"/><stop stop-opacity="1" stop-color="rgb(57.376099%, 33.221436%, 99.015808%)" offset="0.03125"/><stop stop-opacity="1" stop-color="rgb(57.752991%, 33.377075%, 98.866272%)" offset="0.046875"/><stop stop-opacity="1" stop-color="rgb(58.128357%, 33.532715%, 98.718262%)" offset="0.0625"/><stop stop-opacity="1" stop-color="rgb(58.505249%, 33.688354%, 98.568726%)" offset="0.078125"/><stop stop-opacity="1" stop-color="rgb(58.880615%, 33.843994%, 98.419189%)" offset="0.09375"/><stop stop-opacity="1" stop-color="rgb(59.257507%, 33.999634%, 98.269653%)" offset="0.109375"/><stop stop-opacity="1" stop-color="rgb(59.634399%, 34.153748%, 98.120117%)" offset="0.125"/><stop stop-opacity="1" stop-color="rgb(60.009766%, 34.309387%, 97.970581%)" offset="0.140625"/><stop stop-opacity="1" stop-color="rgb(60.386658%, 34.465027%, 97.822571%)" offset="0.15625"/><stop stop-opacity="1" stop-color="rgb(60.762024%, 34.620667%, 97.673035%)" offset="0.171875"/><stop stop-opacity="1" stop-color="rgb(61.138916%, 34.776306%, 97.523499%)" offset="0.1875"/><stop stop-opacity="1" stop-color="rgb(61.515808%, 34.931946%, 97.373962%)" offset="0.203125"/><stop stop-opacity="1" stop-color="rgb(61.891174%, 35.08606%, 97.224426%)" offset="0.21875"/><stop stop-opacity="1" stop-color="rgb(62.268066%, 35.241699%, 97.07489%)" offset="0.234375"/><stop stop-opacity="1" stop-color="rgb(62.643433%, 35.397339%, 96.925354%)" offset="0.25"/><stop stop-opacity="1" stop-color="rgb(63.020325%, 35.552979%, 96.777344%)" offset="0.265625"/><stop stop-opacity="1" stop-color="rgb(63.397217%, 35.708618%, 96.627808%)" offset="0.28125"/><stop stop-opacity="1" stop-color="rgb(63.772583%, 35.864258%, 96.478271%)" offset="0.296875"/><stop stop-opacity="1" stop-color="rgb(64.149475%, 36.019897%, 96.328735%)" offset="0.3125"/><stop stop-opacity="1" stop-color="rgb(64.524841%, 36.174011%, 96.179199%)" offset="0.328125"/><stop stop-opacity="1" stop-color="rgb(64.901733%, 36.329651%, 96.029663%)" offset="0.34375"/><stop stop-opacity="1" stop-color="rgb(65.278625%, 36.485291%, 95.881653%)" offset="0.359375"/><stop stop-opacity="1" stop-color="rgb(65.653992%, 36.64093%, 95.732117%)" offset="0.375"/><stop stop-opacity="1" stop-color="rgb(66.030884%, 36.79657%, 95.582581%)" offset="0.390625"/><stop stop-opacity="1" stop-color="rgb(66.407776%, 36.952209%, 95.433044%)" offset="0.40625"/><stop stop-opacity="1" stop-color="rgb(66.783142%, 37.106323%, 95.283508%)" offset="0.421875"/><stop stop-opacity="1" stop-color="rgb(67.160034%, 37.261963%, 95.133972%)" offset="0.4375"/><stop stop-opacity="1" stop-color="rgb(67.5354%, 37.417603%, 94.984436%)" offset="0.453125"/><stop stop-opacity="1" stop-color="rgb(67.912292%, 37.573242%, 94.836426%)" offset="0.454879"/><stop stop-opacity="1" stop-color="rgb(68.101501%, 37.651062%, 94.761658%)" offset="0.46875"/><stop stop-opacity="1" stop-color="rgb(68.289185%, 37.728882%, 94.68689%)" offset="0.484375"/><stop stop-opacity="1" stop-color="rgb(68.664551%, 37.884521%, 94.537354%)" offset="0.5"/><stop stop-opacity="1" stop-color="rgb(69.041443%, 38.038635%, 94.387817%)" offset="0.515625"/><stop stop-opacity="1" stop-color="rgb(69.416809%, 38.194275%, 94.238281%)" offset="0.53125"/><stop stop-opacity="1" stop-color="rgb(69.793701%, 38.349915%, 94.088745%)" offset="0.545121"/><stop stop-opacity="1" stop-color="rgb(69.98291%, 38.427734%, 94.015503%)" offset="0.546875"/><stop stop-opacity="1" stop-color="rgb(70.170593%, 38.505554%, 93.940735%)" offset="0.5625"/><stop stop-opacity="1" stop-color="rgb(70.545959%, 38.661194%, 93.791199%)" offset="0.578125"/><stop stop-opacity="1" stop-color="rgb(70.922852%, 38.816833%, 93.641663%)" offset="0.59375"/><stop stop-opacity="1" stop-color="rgb(71.298218%, 38.970947%, 93.492126%)" offset="0.609375"/><stop stop-opacity="1" stop-color="rgb(71.67511%, 39.126587%, 93.34259%)" offset="0.625"/><stop stop-opacity="1" stop-color="rgb(72.052002%, 39.282227%, 93.193054%)" offset="0.640625"/><stop stop-opacity="1" stop-color="rgb(72.427368%, 39.437866%, 93.045044%)" offset="0.65625"/><stop stop-opacity="1" stop-color="rgb(72.80426%, 39.593506%, 92.895508%)" offset="0.671875"/><stop stop-opacity="1" stop-color="rgb(73.179626%, 39.749146%, 92.745972%)" offset="0.6875"/><stop stop-opacity="1" stop-color="rgb(73.556519%, 39.903259%, 92.596436%)" offset="0.703125"/><stop stop-opacity="1" stop-color="rgb(73.933411%, 40.058899%, 92.446899%)" offset="0.71875"/><stop stop-opacity="1" stop-color="rgb(74.308777%, 40.214539%, 92.297363%)" offset="0.734375"/><stop stop-opacity="1" stop-color="rgb(74.685669%, 40.370178%, 92.147827%)" offset="0.75"/><stop stop-opacity="1" stop-color="rgb(75.062561%, 40.525818%, 91.999817%)" offset="0.765625"/><stop stop-opacity="1" stop-color="rgb(75.437927%, 40.681458%, 91.850281%)" offset="0.78125"/><stop stop-opacity="1" stop-color="rgb(75.814819%, 40.837097%, 91.700745%)" offset="0.796875"/><stop stop-opacity="1" stop-color="rgb(76.190186%, 40.991211%, 91.551208%)" offset="0.8125"/><stop stop-opacity="1" stop-color="rgb(76.567078%, 41.146851%, 91.401672%)" offset="0.828125"/><stop stop-opacity="1" stop-color="rgb(76.94397%, 41.30249%, 91.252136%)" offset="0.84375"/><stop stop-opacity="1" stop-color="rgb(77.319336%, 41.45813%, 91.104126%)" offset="0.859375"/><stop stop-opacity="1" stop-color="rgb(77.696228%, 41.61377%, 90.95459%)" offset="0.875"/><stop stop-opacity="1" stop-color="rgb(78.071594%, 41.769409%, 90.805054%)" offset="0.890625"/><stop stop-opacity="1" stop-color="rgb(78.448486%, 41.923523%, 90.655518%)" offset="0.90625"/><stop stop-opacity="1" stop-color="rgb(78.825378%, 42.079163%, 90.505981%)" offset="0.921875"/><stop stop-opacity="1" stop-color="rgb(79.200745%, 42.234802%, 90.356445%)" offset="0.9375"/><stop stop-opacity="1" stop-color="rgb(79.493713%, 42.355347%, 90.240479%)" offset="1"/></linearGradient><clipPath id="3325eb8e3d"><path d="M 126 0 L 313 0 L 313 198 L 126 198 Z M 126 0 " clip-rule="nonzero"/></clipPath><clipPath id="87c17c92be"><path d="M 209.882812 229.882812 L 80.433594 140.167969 L 183.394531 -8.390625 L 312.84375 81.324219 Z M 209.882812 229.882812 " clip-rule="nonzero"/></clipPath><clipPath id="8221923d80"><path d="M 209.882812 229.882812 L 80.433594 140.167969 L 183.394531 -8.390625 L 312.84375 81.324219 Z M 209.882812 229.882812 " clip-rule="nonzero"/></clipPath><clipPath id="7c8b308428"><path d="M 50 164 L 183 164 L 183 303 L 50 303 Z M 50 164 " clip-rule="nonzero"/></clipPath><clipPath id="e74bd31984"><path d="M 102.832031 164.511719 L 182.867188 218.875 L 113.753906 320.621094 L 33.722656 266.261719 Z M 102.832031 164.511719 " clip-rule="nonzero"/></clipPath><clipPath id="8ce491f1a2"><path d="M 102.832031 164.511719 L 182.867188 218.875 L 113.753906 320.621094 L 33.722656 266.261719 Z M 102.832031 164.511719 " clip-rule="nonzero"/></clipPath><clipPath id="952c957f36"><path d="M 102.832031 164.511719 L 182.867188 218.875 L 113.753906 320.621094 L 33.722656 266.261719 Z M 102.832031 164.511719 " clip-rule="nonzero"/></clipPath><clipPath id="8f82dc1451"><path d="M 179 210 L 330 210 L 330 342 L 179 342 Z M 179 210 " clip-rule="nonzero"/></clipPath><clipPath id="8a615919de"><path d="M 178.625 317.820312 L 198.257812 210.09375 L 329.59375 234.027344 L 309.960938 341.753906 Z M 178.625 317.820312 " clip-rule="nonzero"/></clipPath><clipPath id="817a57cba9"><path d="M 178.625 317.820312 L 198.257812 210.09375 L 329.59375 234.027344 L 309.960938 341.753906 Z M 178.625 317.820312 " clip-rule="nonzero"/></clipPath></defs><g clip-path="url(#2f38f30b90)"><g clip-path="url(#a10409ac91)"><path fill="url(#fb2e42bbd1)" d="M 37.457031 8.371094 L 37.457031 363.816406 L 341.207031 363.816406 L 341.207031 8.371094 Z M 37.457031 8.371094 " fill-rule="nonzero"/></g></g><g clip-path="url(#3325eb8e3d)"><g clip-path="url(#87c17c92be)"><g clip-path="url(#8221923d80)"><path fill="#ffffff" d="M 251.273438 79.023438 L 208.683594 49.507812 L 219.355469 16.445312 L 183.574219 -8.351562 L 126.929688 172.390625 L 163.273438 197.582031 L 312.707031 81.230469 L 278.21875 57.328125 Z M 179.933594 136.292969 L 195.734375 88.976562 L 218.859375 105.003906 Z M 179.933594 136.292969 " fill-opacity="1" fill-rule="nonzero"/></g></g></g><g clip-path="url(#7c8b308428)"><g clip-path="url(#e74bd31984)"><g clip-path="url(#8ce491f1a2)"><g clip-path="url(#952c957f36)"><path fill="#ffffff" d="M 78.851562 295.640625 C 87.097656 300.136719 95.992188 302.578125 104.335938 302.640625 C 108.527344 302.671875 115.304688 301.441406 118.863281 300.003906 C 124.066406 297.902344 129.089844 294.542969 133.488281 290.226562 C 135.191406 288.550781 137.550781 285.179688 159.109375 253.617188 L 182.851562 218.847656 L 159.015625 202.660156 L 137.355469 234.546875 C 123.117188 255.511719 115.046875 267.195312 113.792969 268.660156 C 111.554688 271.28125 108.324219 274.035156 106.1875 275.144531 C 103.503906 276.542969 99.894531 277.148438 96.851562 276.71875 C 88.476562 275.527344 80.039062 268.175781 78.644531 260.855469 C 77.933594 257.125 78.839844 252.511719 81.246094 247.59375 C 81.835938 246.390625 90.5 233.421875 104.304688 213.09375 L 126.421875 180.519531 L 102.855469 164.511719 L 80.453125 197.496094 C 57.980469 230.582031 56.144531 233.417969 54.148438 238.175781 C 49.226562 249.917969 50.078125 262.503906 56.582031 274.113281 C 61.351562 282.625 69.597656 290.597656 78.851562 295.640625 Z M 78.851562 295.640625 " fill-opacity="1" fill-rule="nonzero"/></g></g></g></g><g clip-path="url(#8f82dc1451)"><g clip-path="url(#8a615919de)"><g clip-path="url(#817a57cba9)"><path fill="#ffffff" d="M 197.703125 213.125 L 193.890625 234.054688 C 193.589844 235.710938 194.683594 237.289062 196.332031 237.589844 L 276.921875 252.277344 L 276.832031 252.78125 L 184.378906 293.398438 C 183.484375 293.816406 182.820312 294.792969 182.644531 295.765625 L 179.179688 314.789062 C 178.875 316.441406 179.96875 318.023438 181.617188 318.324219 L 306.984375 341.167969 C 308.632812 341.46875 310.214844 340.375 310.515625 338.722656 L 314.328125 317.792969 C 314.628906 316.136719 313.535156 314.558594 311.890625 314.257812 L 231.296875 299.570312 L 231.386719 299.066406 L 323.84375 258.449219 C 324.734375 258.03125 325.414062 256.96875 325.589844 255.996094 L 329.042969 237.058594 C 329.34375 235.40625 328.25 233.824219 326.601562 233.523438 L 201.234375 210.679688 C 199.585938 210.378906 198.007812 211.472656 197.703125 213.125 Z M 197.703125 213.125 " fill-opacity="1" fill-rule="nonzero"/></g></g></g></svg>