<svg xmlns="http://www.w3.org/2000/svg" xmlns:xlink="http://www.w3.org/1999/xlink" width="500" zoomAndPan="magnify" viewBox="0 0 375 374.999991" height="500" preserveAspectRatio="xMidYMid meet" version="1.0"><defs><clipPath id="d4856cfdce"><path d="M 37.457031 9 L 341.207031 9 L 341.207031 363.84375 L 37.457031 363.84375 Z M 37.457031 9 " clip-rule="nonzero"/></clipPath><clipPath id="a26df015d5"><path d="M 178.820312 363.816406 L 45.46875 266.195312 C 40.433594 262.507812 37.457031 256.640625 37.457031 250.394531 L 37.457031 118.945312 L 178.820312 222.433594 Z M 199.851562 363.816406 L 333.203125 266.195312 C 338.238281 262.507812 341.214844 256.640625 341.214844 250.394531 L 341.214844 118.945312 L 199.851562 222.433594 Z M 178.300781 12.910156 L 47.488281 102.160156 L 188.855469 205.648438 L 189.335938 205.28125 L 189.816406 205.648438 L 331.183594 102.160156 L 200.371094 12.910156 C 193.714844 8.371094 184.957031 8.371094 178.300781 12.910156 Z M 178.300781 12.910156 " clip-rule="nonzero"/></clipPath><linearGradient x1="-46.33185" gradientTransform="matrix(0.708537, 0, 0, 0.708623, 37.455876, 9.50516)" y1="63.363501" x2="474.959228" gradientUnits="userSpaceOnUse" y2="435.136491" id="654399218c"><stop stop-opacity="1" stop-color="rgb(56.811523%, 32.989502%, 99.240112%)" offset="0"/><stop stop-opacity="1" stop-color="rgb(56.999207%, 33.067322%, 99.165344%)" offset="0.015625"/><stop stop-opacity="1" stop-color="rgb(57.376099%, 33.221436%, 99.015808%)" offset="0.03125"/><stop stop-opacity="1" stop-color="rgb(57.752991%, 33.377075%, 98.866272%)" offset="0.046875"/><stop stop-opacity="1" stop-color="rgb(58.128357%, 33.532715%, 98.718262%)" offset="0.0625"/><stop stop-opacity="1" stop-color="rgb(58.505249%, 33.688354%, 98.568726%)" offset="0.078125"/><stop stop-opacity="1" stop-color="rgb(58.880615%, 33.843994%, 98.419189%)" offset="0.09375"/><stop stop-opacity="1" stop-color="rgb(59.257507%, 33.999634%, 98.269653%)" offset="0.109375"/><stop stop-opacity="1" stop-color="rgb(59.634399%, 34.153748%, 98.120117%)" offset="0.125"/><stop stop-opacity="1" stop-color="rgb(60.009766%, 34.309387%, 97.970581%)" offset="0.140625"/><stop stop-opacity="1" stop-color="rgb(60.386658%, 34.465027%, 97.822571%)" offset="0.15625"/><stop stop-opacity="1" stop-color="rgb(60.762024%, 34.620667%, 97.673035%)" offset="0.171875"/><stop stop-opacity="1" stop-color="rgb(61.138916%, 34.776306%, 97.523499%)" offset="0.1875"/><stop stop-opacity="1" stop-color="rgb(61.515808%, 34.931946%, 97.373962%)" offset="0.203125"/><stop stop-opacity="1" stop-color="rgb(61.891174%, 35.08606%, 97.224426%)" offset="0.21875"/><stop stop-opacity="1" stop-color="rgb(62.268066%, 35.241699%, 97.07489%)" offset="0.234375"/><stop stop-opacity="1" stop-color="rgb(62.643433%, 35.397339%, 96.925354%)" offset="0.25"/><stop stop-opacity="1" stop-color="rgb(63.020325%, 35.552979%, 96.777344%)" offset="0.265625"/><stop stop-opacity="1" stop-color="rgb(63.397217%, 35.708618%, 96.627808%)" offset="0.28125"/><stop stop-opacity="1" stop-color="rgb(63.772583%, 35.864258%, 96.478271%)" offset="0.296875"/><stop stop-opacity="1" stop-color="rgb(64.149475%, 36.019897%, 96.328735%)" offset="0.3125"/><stop stop-opacity="1" stop-color="rgb(64.524841%, 36.174011%, 96.179199%)" offset="0.328125"/><stop stop-opacity="1" stop-color="rgb(64.901733%, 36.329651%, 96.029663%)" offset="0.34375"/><stop stop-opacity="1" stop-color="rgb(65.278625%, 36.485291%, 95.881653%)" offset="0.359375"/><stop stop-opacity="1" stop-color="rgb(65.653992%, 36.64093%, 95.732117%)" offset="0.375"/><stop stop-opacity="1" stop-color="rgb(66.030884%, 36.79657%, 95.582581%)" offset="0.390625"/><stop stop-opacity="1" stop-color="rgb(66.407776%, 36.952209%, 95.433044%)" offset="0.40625"/><stop stop-opacity="1" stop-color="rgb(66.783142%, 37.106323%, 95.283508%)" offset="0.421875"/><stop stop-opacity="1" stop-color="rgb(67.160034%, 37.261963%, 95.133972%)" offset="0.4375"/><stop stop-opacity="1" stop-color="rgb(67.5354%, 37.417603%, 94.984436%)" offset="0.453125"/><stop stop-opacity="1" stop-color="rgb(67.912292%, 37.573242%, 94.836426%)" offset="0.454879"/><stop stop-opacity="1" stop-color="rgb(68.101501%, 37.651062%, 94.761658%)" offset="0.46875"/><stop stop-opacity="1" stop-color="rgb(68.289185%, 37.728882%, 94.68689%)" offset="0.484375"/><stop stop-opacity="1" stop-color="rgb(68.664551%, 37.884521%, 94.537354%)" offset="0.5"/><stop stop-opacity="1" stop-color="rgb(69.041443%, 38.038635%, 94.387817%)" offset="0.515625"/><stop stop-opacity="1" stop-color="rgb(69.416809%, 38.194275%, 94.238281%)" offset="0.53125"/><stop stop-opacity="1" stop-color="rgb(69.793701%, 38.349915%, 94.088745%)" offset="0.545121"/><stop stop-opacity="1" stop-color="rgb(69.98291%, 38.427734%, 94.015503%)" offset="0.546875"/><stop stop-opacity="1" stop-color="rgb(70.170593%, 38.505554%, 93.940735%)" offset="0.5625"/><stop stop-opacity="1" stop-color="rgb(70.545959%, 38.661194%, 93.791199%)" offset="0.578125"/><stop stop-opacity="1" stop-color="rgb(70.922852%, 38.816833%, 93.641663%)" offset="0.59375"/><stop stop-opacity="1" stop-color="rgb(71.298218%, 38.970947%, 93.492126%)" offset="0.609375"/><stop stop-opacity="1" stop-color="rgb(71.67511%, 39.126587%, 93.34259%)" offset="0.625"/><stop stop-opacity="1" stop-color="rgb(72.052002%, 39.282227%, 93.193054%)" offset="0.640625"/><stop stop-opacity="1" stop-color="rgb(72.427368%, 39.437866%, 93.045044%)" offset="0.65625"/><stop stop-opacity="1" stop-color="rgb(72.80426%, 39.593506%, 92.895508%)" offset="0.671875"/><stop stop-opacity="1" stop-color="rgb(73.179626%, 39.749146%, 92.745972%)" offset="0.6875"/><stop stop-opacity="1" stop-color="rgb(73.556519%, 39.903259%, 92.596436%)" offset="0.703125"/><stop stop-opacity="1" stop-color="rgb(73.933411%, 40.058899%, 92.446899%)" offset="0.71875"/><stop stop-opacity="1" stop-color="rgb(74.308777%, 40.214539%, 92.297363%)" offset="0.734375"/><stop stop-opacity="1" stop-color="rgb(74.685669%, 40.370178%, 92.147827%)" offset="0.75"/><stop stop-opacity="1" stop-color="rgb(75.062561%, 40.525818%, 91.999817%)" offset="0.765625"/><stop stop-opacity="1" stop-color="rgb(75.437927%, 40.681458%, 91.850281%)" offset="0.78125"/><stop stop-opacity="1" stop-color="rgb(75.814819%, 40.837097%, 91.700745%)" offset="0.796875"/><stop stop-opacity="1" stop-color="rgb(76.190186%, 40.991211%, 91.551208%)" offset="0.8125"/><stop stop-opacity="1" stop-color="rgb(76.567078%, 41.146851%, 91.401672%)" offset="0.828125"/><stop stop-opacity="1" stop-color="rgb(76.94397%, 41.30249%, 91.252136%)" offset="0.84375"/><stop stop-opacity="1" stop-color="rgb(77.319336%, 41.45813%, 91.104126%)" offset="0.859375"/><stop stop-opacity="1" stop-color="rgb(77.696228%, 41.61377%, 90.95459%)" offset="0.875"/><stop stop-opacity="1" stop-color="rgb(78.071594%, 41.769409%, 90.805054%)" offset="0.890625"/><stop stop-opacity="1" stop-color="rgb(78.448486%, 41.923523%, 90.655518%)" offset="0.90625"/><stop stop-opacity="1" stop-color="rgb(78.825378%, 42.079163%, 90.505981%)" offset="0.921875"/><stop stop-opacity="1" stop-color="rgb(79.200745%, 42.234802%, 90.356445%)" offset="0.9375"/><stop stop-opacity="1" stop-color="rgb(79.493713%, 42.355347%, 90.240479%)" offset="1"/></linearGradient><clipPath id="c68a1d93d2"><path d="M 144 8 L 333 8 L 333 215 L 144 215 Z M 144 8 " clip-rule="nonzero"/></clipPath><clipPath id="c13eb1e3e7"><path d="M 225.4375 247.617188 L 98.492188 154.386719 L 205.480469 8.703125 L 332.425781 101.933594 Z M 225.4375 247.617188 " clip-rule="nonzero"/></clipPath><clipPath id="569dad5cfd"><path d="M 225.4375 247.617188 L 98.492188 154.386719 L 205.480469 8.703125 L 332.425781 101.933594 Z M 225.4375 247.617188 " clip-rule="nonzero"/></clipPath><clipPath id="016ca3b1f6"><path d="M 36 136 L 190 136 L 190 309 L 36 309 Z M 36 136 " clip-rule="nonzero"/></clipPath><clipPath id="2cdb80d89a"><path d="M 73.230469 136.027344 L 189.867188 177.378906 L 137.234375 325.824219 L 20.597656 284.472656 Z M 73.230469 136.027344 " clip-rule="nonzero"/></clipPath><clipPath id="75080ced29"><path d="M 73.230469 136.027344 L 189.867188 177.378906 L 137.234375 325.824219 L 20.597656 284.472656 Z M 73.230469 136.027344 " clip-rule="nonzero"/></clipPath><clipPath id="63e690d004"><path d="M 73.230469 136.027344 L 189.867188 177.378906 L 137.234375 325.824219 L 20.597656 284.472656 Z M 73.230469 136.027344 " clip-rule="nonzero"/></clipPath><clipPath id="1a83b3bc87"><path d="M 180 194 L 349 194 L 349 342 L 180 342 Z M 180 194 " clip-rule="nonzero"/></clipPath><clipPath id="a49f3560f8"><path d="M 179.777344 314.773438 L 201.828125 193.765625 L 349.398438 220.65625 L 327.347656 341.664062 Z M 179.777344 314.773438 " clip-rule="nonzero"/></clipPath><clipPath id="63a9128365"><path d="M 179.777344 314.773438 L 201.828125 193.765625 L 349.398438 220.65625 L 327.347656 341.664062 Z M 179.777344 314.773438 " clip-rule="nonzero"/></clipPath></defs><g clip-path="url(#d4856cfdce)"><g clip-path="url(#a26df015d5)"><path fill="url(#654399218c)" d="M 37.457031 8.371094 L 37.457031 363.816406 L 341.207031 363.816406 L 341.207031 8.371094 Z M 37.457031 8.371094 " fill-rule="nonzero"/></g></g><g clip-path="url(#c68a1d93d2)"><g clip-path="url(#c13eb1e3e7)"><g clip-path="url(#569dad5cfd)"><path fill="#ffffff" d="M 270.941406 97.945312 L 229.175781 67.273438 L 240.746094 34.519531 L 205.65625 8.75 L 144.089844 187.875 L 179.730469 214.046875 L 332.292969 101.832031 L 298.472656 76.996094 Z M 198.0625 153.238281 L 215.152344 106.375 L 237.828125 123.027344 Z M 198.0625 153.238281 " fill-opacity="1" fill-rule="nonzero"/></g></g></g><g clip-path="url(#016ca3b1f6)"><g clip-path="url(#2cdb80d89a)"><g clip-path="url(#75080ced29)"><g clip-path="url(#63e690d004)"><path fill="#ffffff" d="M 85.957031 306.210938 C 97.617188 309.101562 109.417969 309.242188 119.761719 306.609375 C 124.957031 305.285156 132.949219 301.5625 136.886719 298.625 C 142.644531 294.335938 147.777344 288.546875 151.824219 281.769531 C 153.394531 279.144531 155.222656 274.203125 171.695312 228.113281 L 189.835938 177.347656 L 155.101562 165.035156 L 138.609375 211.558594 C 127.765625 242.140625 121.554688 259.234375 120.480469 261.453125 C 118.554688 265.425781 115.445312 269.886719 113.160156 271.957031 C 110.292969 274.554688 106.019531 276.480469 102.113281 276.933594 C 91.367188 278.179688 78.542969 271.8125 74.453125 263.195312 C 72.367188 258.808594 71.996094 252.800781 73.382812 245.925781 C 73.722656 244.246094 80.257812 225.375 90.765625 195.714844 L 107.605469 148.195312 L 73.261719 136.019531 L 56.203125 184.136719 C 39.089844 232.410156 37.734375 236.519531 36.804688 243.054688 C 34.507812 259.199219 39.632812 274.507812 51.4375 286.777344 C 60.089844 295.773438 72.871094 302.96875 85.957031 306.214844 Z M 85.957031 306.210938 " fill-opacity="1" fill-rule="nonzero"/></g></g></g></g><g clip-path="url(#1a83b3bc87)"><g clip-path="url(#a49f3560f8)"><g clip-path="url(#63a9128365)"><path fill="#ffffff" d="M 201.207031 197.167969 L 196.921875 220.679688 C 196.585938 222.539062 197.8125 224.3125 199.664062 224.648438 L 290.21875 241.152344 L 290.117188 241.71875 L 186.238281 287.339844 C 185.234375 287.808594 184.492188 288.90625 184.292969 290 L 180.398438 311.367188 C 180.058594 313.226562 181.289062 315 183.140625 315.335938 L 324 341.007812 C 325.851562 341.34375 327.628906 340.117188 327.96875 338.261719 L 332.25 314.75 C 332.589844 312.890625 331.359375 311.117188 329.511719 310.777344 L 238.957031 294.277344 L 239.058594 293.707031 L 342.9375 248.085938 C 343.941406 247.621094 344.703125 246.421875 344.902344 245.335938 L 348.777344 224.0625 C 349.117188 222.203125 347.886719 220.429688 346.035156 220.089844 L 205.175781 194.421875 C 203.324219 194.082031 201.546875 195.3125 201.207031 197.167969 Z M 201.207031 197.167969 " fill-opacity="1" fill-rule="nonzero"/></g></g></g></svg>