<svg width="0" height="0" class="hidden">
  <symbol enable-background="new 0 0 32 32" id="css_icon" version="1.0" xml:space="preserve" xmlns="http://www.w3.org/2000/svg" xmlns:xlink="http://www.w3.org/1999/xlink" viewBox="0 0 32 32">
    <g>
      <polygon fill="#1F62AE" points="27.377,28.889 16.001,32 4.625,28.889 2,0 30.002,0  "></polygon>
      <polygon fill="#347DC6" points="16,2 16,29.75 25.232,27.008 27.688,2  "></polygon>
      <polygon fill="#FFFFFF" points="24.363,6 7.607,6 8,10 16,10 8.25,12.99 8.619,17 19.502,17 19.158,21 16,21.99 12.861,20.984    12.533,19 8.803,19 9.262,23.987 16,25.99 22.728,23.986 23.719,12.99 16.026,12.99 24,10  "></polygon>
    </g>
    <g></g>
    <g></g>
    <g></g>
    <g></g>
    <g></g>
    <g></g>
  </symbol>
  <symbol enable-background="new 0 0 32 32" id="html_icon" version="1.0" xml:space="preserve" xmlns="http://www.w3.org/2000/svg" xmlns:xlink="http://www.w3.org/1999/xlink" viewBox="0 0 32 32">
    <g>
      <polygon fill="#E44D26" points="27.377,28.889 16.001,32 4.625,28.889 2,0 30.002,0  "></polygon>
      <polygon fill="#FF6C39" points="16,2 16,29.75 25.232,27.008 27.688,2  "></polygon>
      <polygon fill="#FFFFFF" points="24.363,6 7.607,6 8,10 8.619,17 19.503,17 19.148,20.984 16,21.99 12.857,20.984 12.648,19    8.803,19 9.262,23.987 16,25.99 22.728,23.986 23.718,13 12.252,13 12.002,10 24,10  "></polygon>
    </g>
    <g></g>
    <g></g>
    <g></g>
    <g></g>
    <g></g>
    <g></g>
  </symbol>
  <symbol version="1.1" xml:space="preserve" xmlns="http://www.w3.org/2000/svg" xmlns:xlink="http://www.w3.org/1999/xlink" viewBox="0 0 512 512" id="java_icon">
    <g id="_x31_81-java">
      <g>
        <path d="M333.283,307.117c8.807-6.02,21.023-11.23,21.023-11.23s-34.768,6.29-69.357,9.165    c-42.315,3.503-87.775,4.221-110.595,1.167c-53.996-7.187,29.647-27.044,29.647-27.044s-32.433-2.154-72.413,17.07    C84.422,319.066,248.383,329.487,333.283,307.117z"></path>
        <path d="M256.56,278.277c-17.07-38.362-74.659-72.054,0-130.99C349.727,73.797,301.93,26,301.93,26    c19.316,75.917-67.92,98.917-99.456,146.084C181.001,204.337,212.986,238.927,256.56,278.277z"></path>
        <path d="M359.518,119.975c0.09,0-157.403,39.351-82.205,125.958c22.191,25.516-5.84,48.516-5.84,48.516    s56.332-29.108,30.457-65.495C277.762,194.993,259.254,178.103,359.518,119.975z"></path>
        <path d="M354.039,362.999c-0.449,1.078-1.797,2.247-1.797,2.336    c115.266-30.277,72.861-106.824,17.787-87.416c-4.852,1.707-7.365,5.66-7.365,5.66s3.053-1.259,9.883-2.696    C400.396,275.044,440.377,318.168,354.039,362.999L354.039,362.999z"></path>
        <path d="M396.443,418.971c0,0,13.027,10.692-14.285,19.047c-52.018,15.722-216.339,20.483-261.979,0.63    c-16.441-7.099,14.374-17.072,24.078-19.137c10.061-2.157,15.901-1.799,15.901-1.799c-18.238-12.847-117.963,25.247-50.671,36.119    C292.945,483.657,444.061,440.443,396.443,418.971L396.443,418.971z"></path>
        <path d="M195.557,381.776c-70.706,19.766,43.035,60.555,133.055,22.011    c-14.732-5.748-25.334-12.397-25.334-12.397c-40.16,7.637-58.756,8.175-95.233,4.043    C177.948,392.019,195.557,381.776,195.557,381.776L195.557,381.776z"></path>
        <path d="M357.092,469.103c-70.705,13.296-157.941,11.771-209.602,3.233c0-0.088,10.602,8.716,65.046,12.22    c82.834,5.302,210.051-2.966,213.016-42.136C425.553,442.42,419.803,457.245,357.092,469.103L357.092,469.103z"></path>
        <path d="M317.922,343.144c-53.188,10.243-84.003,9.973-122.904,5.93    c-30.098-3.145-10.422-17.698-10.422-17.698c-77.982,25.874,43.304,55.164,152.281,23.269    C325.289,350.601,317.922,343.144,317.922,343.144z"></path>
      </g>
    </g>
    <g id="Layer_1"></g>
  </symbol>
  <symbol id="javascript_icon" version="1.1" xml:space="preserve" xmlns="http://www.w3.org/2000/svg" xmlns:xlink="http://www.w3.org/1999/xlink" viewBox="0 0 128 128">
    <g>
      <g>
        <g>
          <circle cx="64" cy="64" r="50" fill="#FFFF00"></circle>
        </g>
      </g>
      <g id="Layer_1_1_">
        <g>
          <g>
            <path d="M48.4,44.6h8.7v24.5c0,11-5.3,14.9-13.7,14.9c-2.1,0-4.7-0.3-6.4-0.9l1-7.1      c1.2,0.4,2.8,0.7,4.5,0.7c3.7,0,6-1.7,6-7.6L48.4,44.6L48.4,44.6z"></path>
            <path d="M64.8,74.4c2.3,1.2,6,2.4,9.7,2.4c4,0,6.1-1.7,6.1-4.3c0-2.4-1.8-3.8-6.5-5.4      c-6.4-2.3-10.7-5.9-10.7-11.6C63.4,49,69,44,78.1,44c4.4,0,7.6,0.9,9.9,2l-2,7c-1.5-0.7-4.3-1.8-8-1.8c-3.8,0-5.6,1.8-5.6,3.7      c0,2.5,2.1,3.6,7.2,5.5c6.8,2.5,10,6.1,10,11.6c0,6.5-4.9,12-15.6,12c-4.4,0-8.8-1.2-11-2.4L64.8,74.4z"></path>
          </g>
        </g>
      </g>
    </g>
  </symbol>
  <symbol version="1.1" xml:space="preserve" xmlns="http://www.w3.org/2000/svg" xmlnsSerif="http://www.serif.com/" xmlns:xlink="http://www.w3.org/1999/xlink" viewBox="0 0 128 128" id="react_icon">
    <g transform="matrix(1.25305,0,0,1.25305,-16.3076,4.57191)">
      <circle cx="64" cy="47.5" r="9.3"></circle>
      <path d="M64,81.7C71.3,88.8 78.5,93 84.3,93C86.2,93 88,92.6 89.5,91.7C94.7,88.7 96.6,81.2 94.8,70.5C94.5,68.6 94.1,66.7 93.6,64.7C95.6,64.1 97.4,63.5 99.2,62.9C109.3,59 114.9,53.6 114.9,47.7C114.9,41.7 109.3,36.3 99.2,32.5C97.4,31.8 95.6,31.2 93.6,30.7C94.1,28.7 94.5,26.8 94.8,24.9C96.5,14 94.6,6.4 89.4,3.4C87.9,2.5 86.1,2.1 84.2,2.1C78.5,2.1 71.2,6.3 63.9,13.4C56.7,6.3 49.5,2.1 43.7,2.1C41.8,2.1 40,2.5 38.5,3.4C33.3,6.4 31.4,13.9 33.2,24.6C33.5,26.5 33.9,28.4 34.4,30.4C32.4,31 30.6,31.6 28.8,32.2C18.7,36.1 13.1,41.5 13.1,47.4C13.1,53.4 18.7,58.8 28.8,62.6C30.6,63.3 32.4,63.9 34.4,64.4C33.9,66.4 33.5,68.3 33.2,70.2C31.5,80.9 33.4,88.5 38.5,91.4C40,92.3 41.8,92.7 43.7,92.7C49.5,92.9 56.7,88.7 64,81.7ZM58.4,68.2C60.2,68.3 62.1,68.3 64,68.3C65.9,68.3 67.8,68.3 69.6,68.2C67.8,70.6 65.9,72.8 64,74.9C62.1,72.8 60.2,70.6 58.4,68.2ZM46,57.9C47,59.6 47.9,61.2 49,62.8C45.9,62.4 43,61.9 40.2,61.3C41.1,58.6 42.1,55.8 43.3,53C44.1,54.6 45,56.3 46,57.9ZM40.2,33.8C43,33.2 45.9,32.7 49,32.3C48,33.9 47,35.5 46,37.2C45,38.9 44.1,40.5 43.3,42.2C42,39.3 41,36.5 40.2,33.8ZM45.7,47.5C47,44.8 48.4,42.1 50,39.4C51.5,36.8 53.2,34.2 54.9,31.6C57.9,31.4 60.9,31.3 64,31.3C67.2,31.3 70.2,31.4 73.1,31.6C74.9,34.2 76.5,36.8 78,39.4C79.6,42.1 81,44.8 82.3,47.5C81,50.2 79.6,52.9 78,55.6C76.5,58.2 74.8,60.8 73.1,63.4C70.1,63.6 67.1,63.7 64,63.7C60.8,63.7 57.8,63.6 54.9,63.4C53.1,60.8 51.5,58.2 50,55.6C48.4,52.9 47,50.2 45.7,47.5ZM84.8,42.1L82.1,37.1C81.1,35.4 80.2,33.8 79.1,32.2C82.2,32.6 85.1,33.1 87.9,33.7C87,36.5 86,39.3 84.8,42.1ZM84.8,52.9C86,55.7 87,58.5 87.9,61.2C85.1,61.8 82.2,62.3 79.1,62.7C80.1,61.1 81.1,59.5 82.1,57.8C83,56.3 83.9,54.6 84.8,52.9ZM87.1,87.6C86.3,88.1 85.3,88.3 84.2,88.3C79.3,88.3 73.2,84.3 67.2,78.3C70.1,75.2 72.9,71.7 75.7,67.8C80.4,67.4 84.9,66.7 89.1,65.7C89.6,67.5 89.9,69.3 90.2,71.1C91.6,79.6 90.5,85.7 87.1,87.6ZM92.3,34.9C103.5,38.1 110.2,43 110.2,47.5C110.2,51.4 105.6,55.3 97.5,58.4C95.9,59 94.1,59.6 92.3,60.1C91,56 89.4,51.8 87.4,47.5C89.4,43.2 91.1,39 92.3,34.9ZM84.3,6.7C85.4,6.7 86.3,6.9 87.2,7.4C90.5,9.3 91.7,15.3 90.3,23.9C90,25.6 89.6,27.4 89.2,29.3C85,28.4 80.5,27.7 75.8,27.2C73.1,23.3 70.2,19.8 67.3,16.7C73.3,10.8 79.4,6.7 84.3,6.7ZM69.6,26.8C67.8,26.7 65.9,26.7 64,26.7C62.1,26.7 60.2,26.7 58.4,26.8C60.2,24.4 62.1,22.2 64,20.1C65.9,22.2 67.8,24.5 69.6,26.8ZM40.9,7.4C41.7,6.9 42.7,6.7 43.8,6.7C48.7,6.7 54.8,10.7 60.8,16.7C57.9,19.8 55.1,23.3 52.3,27.2C47.6,27.6 43.1,28.3 38.9,29.3C38.4,27.5 38.1,25.7 37.8,23.9C36.4,15.4 37.5,9.4 40.9,7.4ZM35.7,60.1C24.5,56.9 17.8,52 17.8,47.5C17.8,43.6 22.4,39.7 30.5,36.6C32.1,36 33.9,35.4 35.7,34.9C37,39 38.6,43.2 40.6,47.5C38.6,51.8 36.9,56.1 35.7,60.1ZM37.8,71.1C38.1,69.4 38.5,67.6 38.9,65.7C43.1,66.6 47.6,67.3 52.3,67.8C55,71.7 57.9,75.2 60.8,78.3C54.8,84.2 48.7,88.3 43.8,88.3C42.7,88.3 41.8,88.1 40.9,87.6C37.5,85.7 36.4,79.6 37.8,71.1Z"></path>
    </g>
  </symbol>
  <symbol version="1.1" xmlns="http://www.w3.org/2000/svg" xmlns:xlink="http://www.w3.org/1999/xlink" preserveAspectRatio="xMidYMid" viewBox="0 0 256 256" id="spring_icon">
    <g>
      <path d="M38.9437824,35.879008 C89.5234256,-13.1200214 170.398168,-11.8028432 219.397197,39.0402357 C224.929346,31.6640377 229.671187,23.4975328 233.095851,15.0675923 C249.165425,64.0666217 258.912543,105.162582 255.224444,137.038295 C253.380395,163.90873 242.842969,189.725423 225.456217,210.273403 C180.145286,264.014274 99.53398,270.863601 45.7931091,225.55267 L45.7931091,225.55267 L44.765,224.638 L44.7103323,224.601984 C44.5420247,224.484832 44.376007,224.362668 44.2124952,224.235492 C43.7219599,223.853965 43.2765312,223.438607 42.8762093,222.995252 L42.732,222.831 L41.0512675,221.3377 C39.4121124,219.93271 37.7729573,218.52772 36.3188215,216.93771 L35.7825547,216.332423 C-13.2164747,165.752779 -11.6358609,84.8780374 38.9437824,35.879008 Z M57.9111486,207.375611 C53.169307,203.687512 46.3199803,204.214383 42.6318814,208.956225 C39.3888978,213.125775 39.4048731,218.924805 42.6798072,222.771269 L42.732,222.831 L44.765,224.638 L44.9644841,224.773953 C49.5691585,227.80174 55.7644273,227.175885 59.2982065,222.896387 L59.4917624,222.654878 C63.1798614,217.913037 62.3895545,211.06371 57.9111486,207.375611 Z M231.778672,28.2393744 C218.60689,55.9001168 185.940871,76.9749681 157.753257,83.5608592 C131.146257,89.8833146 107.963921,84.6146018 83.4644059,94.0982849 C27.6160498,115.436572 28.6697923,181.822354 59.2283268,196.838185 L59.2283268,196.838185 L61.0723763,197.891928 C61.0723763,197.891928 83.1456487,193.50309 104.973663,187.707242 L106.843514,187.207079 C115.561826,184.857554 124.138869,182.296538 131.146257,179.714869 C167.500376,166.279651 207.542593,133.08676 220.714375,94.6251562 C213.865049,134.667374 179.35498,173.392413 144.84491,191.042601 C126.404416,200.526284 112.178891,202.633769 81.883792,213.171195 C78.195693,214.488373 75.297901,215.805551 75.297901,215.805551 C75.6675607,215.754564 76.0372203,215.70481 76.4060145,215.65629 L77.1421925,215.560893 L77.1421925,215.560893 L77.8745239,215.468787 C84.5652297,214.639554 90.5771682,214.224938 90.5771682,214.224938 C133.517178,212.117452 200.956702,226.342977 232.305544,184.45671 C264.444692,141.780136 246.531068,72.7599979 231.778672,28.2393744 Z" fill="#6DB33F"></path>
      <path d="M57.9111486,207.375611 C62.3895545,211.06371 63.1798614,217.913037 59.4917624,222.654878 C55.8036635,227.39672 48.9543368,227.923591 44.2124952,224.235492 C39.4706537,220.547393 38.9437824,213.698066 42.6318814,208.956225 C46.3199803,204.214383 53.169307,203.687512 57.9111486,207.375611 Z M231.778672,28.2393744 C246.531068,72.7599979 264.444692,141.780136 232.305544,184.45671 C200.956702,226.342977 133.517178,212.117452 90.5771682,214.224938 C90.5771682,214.224938 84.5652297,214.639554 77.8745239,215.468787 L77.1421925,215.560893 C76.5300999,215.63902 75.9140004,215.720572 75.297901,215.805551 C75.297901,215.805551 78.195693,214.488373 81.883792,213.171195 C112.178891,202.633769 126.404416,200.526284 144.84491,191.042601 C179.35498,173.392413 213.865049,134.667374 220.714375,94.6251562 C207.542593,133.08676 167.500376,166.279651 131.146257,179.714869 C106.119871,188.935116 61.0723763,197.891928 61.0723763,197.891928 L59.2283268,196.838185 C28.6697923,181.822354 27.6160498,115.436572 83.4644059,94.0982849 C107.963921,84.6146018 131.146257,89.8833146 157.753257,83.5608592 C185.940871,76.9749681 218.60689,55.9001168 231.778672,28.2393744 Z" fill="#FFFFFF"></path>
    </g>
  </symbol>
</svg>