<svg width="0" height="0" class="hidden">
  <symbol id="cv_icon" version="1.1" xml:space="preserve" xmlns="http://www.w3.org/2000/svg" xmlns:xlink="http://www.w3.org/1999/xlink" viewBox="0 0 512 512">
    <g>
      <path d="M398.6,169.2c-0.9-2.2-2-4.3-3.5-6.1l-83.8-91.7c-1.9-2.1-4.2-3.6-6.7-4.9c-2.9-1.5-6.1-2.1-9.5-2.1H135.2   c-12.4,0-22.7,10.6-22.7,23.9v335.2c0,13.4,10.3,24.9,22.7,24.9h243.1c12.4,0,22.2-11.5,22.2-24.9V179.4   C400.5,175.8,400,172.3,398.6,169.2z M160.5,178.6c0-1.5,1.8-2.1,3.4-2.1h70.8c1.6,0,2.8,0.6,2.8,2.1v10.8c0,1.4-1.1,3.1-2.8,3.1   h-70.8c-1.6,0-3.4-1.7-3.4-3.1V178.6z M160.5,306.6c0-1.5,1.8-2.1,3.4-2.1h122.2c1.6,0,2.4,0.6,2.4,2.1v10.8c0,1.4-0.7,3.1-2.4,3.1   H163.9c-1.6,0-3.4-1.7-3.4-3.1V306.6z M320.5,381.4c0,1.4-0.7,3.1-2.4,3.1H163.9c-1.6,0-3.4-1.7-3.4-3.1v-10.8   c0-1.5,1.8-2.1,3.4-2.1h154.2c1.6,0,2.4,0.6,2.4,2.1V381.4z M352.5,253.4c0,1.4-0.7,3.1-2.4,3.1H163.9c-1.6,0-3.4-1.7-3.4-3.1   v-10.8c0-1.5,1.8-2.1,3.4-2.1h186.2c1.6,0,2.4,0.6,2.4,2.1V253.4z M305.6,177.5c-5.6,0-11.1-5.2-11.1-11.3v-66l71.2,77.3H305.6z"></path>
    </g>
  </symbol>
  <symbol id="github_icon" version="1.1" xml:space="preserve" xmlns="http://www.w3.org/2000/svg" xmlns:xlink="http://www.w3.org/1999/xlink" viewBox="0 0 512 512">
    <g>
      <path d="M256,32C132.3,32,32,134.8,32,261.7c0,101.5,64.2,187.5,153.2,217.9c11.2,2.1,15.3-5,15.3-11.1   c0-5.5-0.2-19.9-0.3-39.1c-62.3,13.9-75.5-30.8-75.5-30.8c-10.2-26.5-24.9-33.6-24.9-33.6c-20.3-14.3,1.5-14,1.5-14   c22.5,1.6,34.3,23.7,34.3,23.7c20,35.1,52.4,25,65.2,19.1c2-14.8,7.8-25,14.2-30.7c-49.7-5.8-102-25.5-102-113.5   c0-25.1,8.7-45.6,23-61.6c-2.3-5.8-10-29.2,2.2-60.8c0,0,18.8-6.2,61.6,23.5c17.9-5.1,37-7.6,56.1-7.7c19,0.1,38.2,2.6,56.1,7.7   c42.8-29.7,61.5-23.5,61.5-23.5c12.2,31.6,4.5,55,2.2,60.8c14.3,16.1,23,36.6,23,61.6c0,88.2-52.4,107.6-102.3,113.3   c8,7.1,15.2,21.1,15.2,42.5c0,30.7-0.3,55.5-0.3,63c0,6.1,4,13.3,15.4,11C415.9,449.1,480,363.1,480,261.7   C480,134.8,379.7,32,256,32z"></path>
    </g>
  </symbol>
  <symbol version="1.1" xml:space="preserve" xmlns="http://www.w3.org/2000/svg" xmlnsSerif="http://www.serif.com/" xmlns:xlink="http://www.w3.org/1999/xlink" viewBox="0 0 512 512" id="linkedin_icon">
    <path d="M473.305,-1.353c20.88,0 37.885,16.533 37.885,36.926l0,438.251c0,20.393 -17.005,36.954 -37.885,36.954l-436.459,0c-20.839,0 -37.773,-16.561 -37.773,-36.954l0,-438.251c0,-20.393 16.934,-36.926 37.773,-36.926l436.459,0Zm-37.829,436.389l0,-134.034c0,-65.822 -14.212,-116.427 -91.12,-116.427c-36.955,0 -61.739,20.263 -71.867,39.476l-1.04,0l0,-33.411l-72.811,0l0,244.396l75.866,0l0,-120.878c0,-31.883 6.031,-62.773 45.554,-62.773c38.981,0 39.468,36.461 39.468,64.802l0,118.849l75.95,0Zm-284.489,-244.396l-76.034,0l0,244.396l76.034,0l0,-244.396Zm-37.997,-121.489c-24.395,0 -44.066,19.735 -44.066,44.047c0,24.318 19.671,44.052 44.066,44.052c24.299,0 44.026,-19.734 44.026,-44.052c0,-24.312 -19.727,-44.047 -44.026,-44.047Z"></path>
  </symbol>
  <symbol xmlns="http://www.w3.org/2000/svg" viewBox="0 0 24 24" id="send_email_icon">
    <title></title>
    <path d="M22.984.638a.5.5,0,0,0-.718-.559L1.783,10.819a1.461,1.461,0,0,0-.1,2.527h0l4.56,2.882a.25.25,0,0,0,.3-.024L18.7,5.336a.249.249,0,0,1,.361.342L9.346,17.864a.25.25,0,0,0,.062.367L15.84,22.3a1.454,1.454,0,0,0,2.19-.895Z"></path>
    <path d="M7.885,19.182a.251.251,0,0,0-.385.211c0,1.056,0,3.585,0,3.585a1,1,0,0,0,1.707.707l2.018-2.017a.251.251,0,0,0-.043-.388Z"></path>
  </symbol>
  <symbol id="web_icon" version="1.1" xml:space="preserve" xmlns="http://www.w3.org/2000/svg" xmlns:xlink="http://www.w3.org/1999/xlink" viewBox="0 0 128 128">
    <g>
      <path d="M64,126c34.2,0,62-27.8,62-62S98.2,2,64,2S2,29.8,2,64S29.8,126,64,126z M16,88.7l25.2-0.2c2.8,10.1,7.5,19.9,13.9,28.7   C38,114.4,23.7,103.5,16,88.7z M47.6,47H79c2.3,11,2.3,22.3,0.2,33.3l-31.6,0.2C45.3,69.4,45.3,58,47.6,47z M63.3,114.9   c-6.3-8.1-10.9-17-13.7-26.4l27.5-0.2C74.2,97.7,69.6,106.7,63.3,114.9z M71.3,117.5c6.6-9,11.3-18.9,14.1-29.3l26.9-0.2   C104.5,103.7,89.3,115,71.3,117.5z M118,64c0,5.6-0.9,11-2.4,16l-28.3,0.2c2-11,1.9-22.2-0.2-33.2h28.1C117,52.3,118,58.1,118,64z    M111.8,39H85.2c-2.9-10-7.5-19.7-13.9-28.5C89,12.9,103.9,23.8,111.8,39z M76.9,39H49.7c2.9-9.2,7.4-17.9,13.6-25.9   C69.5,21.1,74,29.8,76.9,39z M55.1,10.8C48.8,19.5,44.2,29,41.4,39H16.2C23.9,24.3,38.1,13.6,55.1,10.8z M39.5,47   c-2.1,11.1-2.1,22.4-0.1,33.5l-26.7,0.2C10.9,75.4,10,69.8,10,64c0-5.9,1-11.7,2.8-17H39.5z"></path>
    </g>
  </symbol>
</svg>